# Blender v2.93.6 OBJ File: 'Obelisks.blend'
# www.blender.org
mtllib Obelisks3.mtl
o Statue_Cube.002
v -0.691997 0.000000 0.691997
v 0.000000 10.033000 0.000000
v -0.691997 0.000000 -0.691997
v 0.000000 10.033000 0.000000
v 0.691997 0.000000 0.691997
v 0.000000 10.033000 0.000000
v 0.691997 0.000000 -0.691997
v 0.000000 10.033000 0.000000
v -0.304960 9.149590 0.304960
v -0.304960 9.149590 -0.304960
v 0.304960 9.149590 -0.304960
v 0.304960 9.149590 0.304960
v -0.640007 2.455058 -0.640007
v 0.640007 2.455058 -0.640007
v -0.640007 2.455058 0.640007
v -0.547294 0.736257 -0.547294
v 0.547294 0.736257 -0.547294
v 0.547294 0.736257 0.547294
v -0.521912 0.711256 0.567977
v -0.691997 0.535460 -0.691997
v 0.691997 0.535460 -0.691997
v 0.691997 0.535460 0.691997
v -0.691997 0.535460 0.691997
v -0.528465 2.283528 0.528465
v -0.528465 2.283528 -0.528465
v 0.528465 2.283528 -0.528465
v -0.449811 2.786304 0.449811
v -0.449811 2.786304 -0.449811
v 0.449811 2.786304 -0.449811
v -0.640373 2.531645 -0.640373
v 0.640373 2.531645 -0.640373
v -0.640373 2.531645 0.640373
v -0.560969 2.531645 0.564115
v -0.560969 2.531645 -0.564115
v 0.560969 2.531645 -0.564115
v -0.560969 2.614201 0.557822
v -0.560969 2.614201 -0.557822
v 0.560969 2.614201 -0.557822
v -0.478909 2.614201 0.478094
v -0.478909 2.614201 -0.478094
v 0.478909 2.614201 -0.478094
v -0.478909 2.733675 0.477072
v -0.478909 2.733675 -0.477072
v 0.478909 2.733675 -0.477072
v -0.573531 2.283528 0.550527
v -0.573531 2.283528 -0.550527
v 0.573531 2.283528 -0.550527
v -0.573531 2.377901 0.563023
v -0.573531 2.377901 -0.563023
v 0.573531 2.377901 -0.563023
v -0.622962 2.409358 0.616507
v -0.622962 2.409358 -0.616507
v 0.622962 2.409358 -0.616507
v -0.536695 1.607175 -0.536695
v 0.536695 1.607175 -0.536695
v 0.536695 1.607175 0.536695
v -0.536695 1.607175 0.536695
v -0.516596 1.549179 -0.501790
v 0.537348 1.553534 -0.537348
v 0.525270 1.567989 0.485016
v -0.479628 1.517327 0.420757
v -0.538533 1.456199 -0.538533
v 0.538533 1.456199 -0.538533
v 0.538533 1.456199 0.538533
v -0.538533 1.456199 0.538533
v -0.497375 1.471019 0.504871
v -0.538048 1.496049 -0.538048
v 0.538048 1.496049 -0.538048
v 0.533103 1.501967 0.516623
v -0.482626 0.803060 0.567264
v -0.512425 1.281933 0.544505
v -0.218354 1.124738 0.558592
v -0.576145 0.861543 0.378776
v -0.435317 0.986846 0.459646
v 0.603445 2.420741 0.310410
v 0.304379 2.531645 0.640373
v 0.292928 2.531645 0.564115
v 0.478909 2.733675 0.294792
v 0.353277 2.283528 0.528465
v 0.329159 2.733675 0.477072
v 0.346318 2.315623 0.554315
v 0.440138 3.211215 0.440138
v 0.528465 2.283528 0.374544
v 0.312130 2.614201 0.557822
v 0.581642 2.320913 0.354477
v 0.560969 2.531645 0.248882
v 0.537402 2.588497 0.276069
v 0.310120 2.377901 0.563023
v 0.621218 2.468392 0.277109
v 0.326014 2.631282 0.479711
v 0.573531 2.377901 0.334169
v 0.285639 2.455058 0.640007
v 0.449811 2.786304 0.304919
v 0.532495 1.952330 0.532495
v 0.305032 2.409358 0.616507
v 0.503982 2.624463 0.256967
v 0.615371 2.512386 0.267721
v 0.337908 2.786304 0.449811
v 0.411773 2.472354 0.404792
v -0.416198 4.262894 0.416198
v -0.334966 7.831443 0.334966
v -0.023986 4.771404 0.404623
v -0.009703 5.314006 0.392271
v 0.177227 5.546404 0.386981
v 0.065679 5.785295 0.364034
v -0.001221 6.052594 0.367117
v -0.063725 6.799341 0.358460
v -0.361578 6.662351 0.060632
v -0.391746 5.337100 0.050551
v -0.010878 5.717307 0.095947
v -0.376662 5.999725 0.055592
vt 0.602987 0.000000
vt 0.625000 0.000000
vt 0.625000 0.250000
vt 0.602987 0.250000
vt 0.625000 0.500000
vt 0.602987 0.500000
vt 0.625000 0.750000
vt 0.602987 0.750000
vt 0.625000 1.000000
vt 0.602987 1.000000
vt 0.125000 0.500000
vt 0.375000 0.500000
vt 0.375000 0.750000
vt 0.125000 0.750000
vt 0.875000 0.500000
vt 0.875000 0.750000
vt 0.443709 0.702240
vt 0.444429 0.709735
vt 0.443709 0.702240
vt 0.444429 0.500000
vt 0.455016 0.750000
vt 0.444429 0.250000
vt 0.444428 0.000000
vt 0.481222 0.000000
vt 0.507989 0.108879
vt 0.524500 0.106453
vt 0.541011 0.104027
vt 0.570142 0.000000
vt 0.436253 0.000000
vt 0.437440 0.000000
vt 0.437440 0.250000
vt 0.436253 0.250000
vt 0.437440 0.500000
vt 0.436253 0.500000
vt 0.437440 0.684400
vt 0.436253 0.690725
vt 0.443709 0.789086
vt 0.442075 0.796656
vt 0.443709 0.789086
vt 0.388342 0.750000
vt 0.393346 0.750000
vt 0.393346 1.000000
vt 0.388342 1.000000
vt 0.388342 0.500000
vt 0.393346 0.500000
vt 0.388342 0.250000
vt 0.393346 0.250000
vt 0.388342 0.000000
vt 0.393346 0.000000
vt 0.375000 0.000000
vt 0.375000 0.250000
vt 0.375000 1.000000
vt 0.415038 0.750000
vt 0.423634 0.750000
vt 0.431883 0.791438
vt 0.431883 1.000000
vt 0.415038 1.000000
vt 0.415038 0.500000
vt 0.431883 0.500000
vt 0.431883 0.713592
vt 0.415038 0.250000
vt 0.431884 0.250000
vt 0.415038 0.000000
vt 0.431883 0.000000
vt 0.443709 0.000000
vt 0.443709 0.250000
vt 0.443709 0.500000
vt 0.439526 0.680149
vt 0.441081 0.686759
vt 0.439526 0.680149
vt 0.432983 0.711068
vt 0.435435 0.699191
vt 0.432983 0.711068
vt 0.438606 0.500000
vt 0.438606 0.677261
vt 0.438606 0.250000
vt 0.438606 0.000000
vt 0.444429 0.709735
vt 0.439526 0.500000
vt 0.439526 0.250000
vt 0.439526 0.000000
vt 0.438606 0.677261
vt 0.441081 0.500000
vt 0.441081 0.250000
vt 0.441081 0.000000
vt 0.431883 0.791438
vt 0.442075 0.500000
vt 0.442075 0.691965
vt 0.442075 0.250000
vt 0.442075 0.000000
vt 0.441081 0.805449
vt 0.442075 0.796656
vt 0.437440 0.684400
vt 0.432983 0.500000
vt 0.432983 0.250000
vt 0.432983 0.000000
vt 0.435435 0.699191
vt 0.435435 0.500000
vt 0.435435 0.250000
vt 0.435435 0.000000
vt 0.436253 0.690725
vt 0.413702 0.000000
vt 0.413702 0.250000
vt 0.413702 0.500000
vt 0.413702 0.750000
vt 0.413702 1.000000
vt 0.412270 0.750000
vt 0.412270 1.000000
vt 0.412270 0.500000
vt 0.412270 0.250000
vt 0.412270 0.000000
vt 0.396520 0.000000
vt 0.397020 0.036775
vt 0.406404 0.000000
vt 0.411277 0.000000
vt 0.411277 0.250000
vt 0.411277 0.500000
vt 0.411277 0.750000
vt 0.411277 1.000000
vt 0.406404 1.000000
vt 0.402966 0.940153
vt 0.396520 1.000000
vt 0.396520 1.000000
vt 0.406404 0.000000
vt 0.397020 0.036775
vt 0.402966 0.940153
vt 0.444429 0.781097
vt 0.444429 1.000000
vt 0.443709 1.000000
vt 0.439526 0.809727
vt 0.441081 0.805449
vt 0.444429 0.781097
vt 0.436253 0.813794
vt 0.435435 0.807410
vt 0.436253 0.813794
vt 0.570142 1.000000
vt 0.544424 0.897236
vt 0.525488 0.935976
vt 0.512151 0.922123
vt 0.513204 0.817769
vt 0.507413 0.878087
vt 0.493893 0.882396
vt 0.481222 1.000000
vt 0.431883 0.713592
vt 0.423634 0.750000
vt 0.437440 0.819212
vt 0.437440 0.819212
vt 0.441081 0.686759
vt 0.438606 0.815585
vt 0.439526 0.809727
vt 0.432983 0.796939
vt 0.435435 0.807410
vt 0.442075 0.691965
vt 0.438606 1.000000
vt 0.437440 1.000000
vt 0.439526 1.000000
vt 0.438606 0.815585
vt 0.441081 1.000000
vt 0.442075 1.000000
vt 0.432983 0.796939
vt 0.432983 1.000000
vt 0.435435 1.000000
vt 0.436253 1.000000
vt 0.455016 0.750000
vt 0.512151 0.922123
vt 0.570142 0.000000
vt 0.493893 0.882396
vt 0.524500 0.106453
vt 0.525488 0.935976
vt 0.507413 0.878087
vt 0.507989 0.108879
vt 0.544424 0.897236
vt 0.513204 0.817769
vt 0.481222 1.000000
vt 0.541011 0.104027
vn -0.9453 0.3263 0.0000
vn 0.0000 0.3263 -0.9453
vn 0.9453 0.3263 0.0000
vn 0.0000 0.3263 0.9453
vn 0.0000 -1.0000 0.0000
vn 0.0000 0.0000 1.0000
vn 0.5942 0.1776 0.7845
vn 0.9997 0.0228 0.0000
vn 0.0000 0.0228 -0.9997
vn -0.9997 0.0228 0.0000
vn -0.9370 -0.3495 0.0000
vn 0.0000 -0.4573 -0.8893
vn 0.9414 -0.3365 0.0241
vn 0.6571 -0.0008 0.7538
vn 0.0009 0.5808 0.8140
vn 0.8113 0.5846 0.0000
vn 0.0000 0.5846 -0.8113
vn -0.7676 0.6408 0.0142
vn -1.0000 0.0000 0.0000
vn 0.0000 0.0000 -1.0000
vn 1.0000 0.0000 0.0000
vn -0.0000 0.0122 0.9999
vn 0.9999 0.0122 -0.0000
vn 0.0000 0.0122 -0.9999
vn -0.9999 0.0122 0.0000
vn -0.8751 0.4839 0.0000
vn 0.0000 0.4599 -0.8879
vn 0.8751 0.4839 0.0000
vn 0.7273 -0.0265 0.6859
vn 0.5388 0.3498 0.7664
vn 0.9986 0.0473 0.0241
vn 0.0000 -0.0048 -1.0000
vn -1.0000 -0.0048 0.0000
vn 0.9742 -0.0479 0.2203
vn 0.1480 0.9889 0.0132
vn 0.0000 1.0000 0.0000
vn 0.1454 0.8705 0.4702
vn 0.9865 0.1628 0.0167
vn 0.0000 0.0760 -0.9971
vn 0.5714 0.3184 0.7564
vn 0.3017 0.9534 0.0091
vn 0.8971 0.3707 0.2405
vn 0.9936 0.1119 -0.0173
vn 0.0000 0.0086 -1.0000
vn 0.5082 0.2438 0.8260
vn 0.3622 -0.9319 0.0176
vn 0.4696 0.1542 0.8693
vn 0.9986 0.0523 -0.0056
vn 0.0000 -0.1313 -0.9913
vn 0.4887 0.3699 0.7901
vn 0.6896 -0.7241 0.0119
vn 0.0000 -0.8620 -0.5070
vn -0.5369 -0.8437 0.0000
vn -0.8845 -0.4665 0.0089
vn -0.0154 -0.2959 -0.9551
vn 0.9929 -0.1189 0.0065
vn 0.0005 -0.7923 0.6101
vn -0.0547 0.7188 0.6931
vn 0.9975 0.0708 0.0075
vn -0.0165 0.3196 -0.9474
vn -0.9212 0.3861 0.0476
vn -1.0000 -0.0022 0.0089
vn 0.0135 0.0239 0.9996
vn -0.7887 0.6144 0.0224
vn 0.9976 0.0695 0.0021
vn -0.0141 0.6804 0.7327
vn -0.6041 0.5127 0.6101
vn -0.2365 -0.3251 0.9156
vn -0.7172 0.4803 0.5049
vn -0.2161 -0.3216 0.9219
vn 0.0000 0.4599 0.8879
vn 0.7705 -0.1317 0.6237
vn 0.8480 0.1257 0.5148
vn 0.8614 -0.3978 0.3159
vn -0.0023 0.0222 0.9998
vn 0.3229 0.0481 0.9452
vn 0.6866 0.3197 0.6529
vn 0.8706 0.1246 0.4760
vn 0.2189 0.6085 0.7627
vn 0.3829 0.9220 -0.0575
vn 0.7002 0.3176 0.6394
vn 0.8445 0.0084 0.5355
vn 0.0000 -0.0048 1.0000
vn 0.8673 -0.2144 0.4493
vn 0.0000 0.0760 0.9971
vn -0.0102 0.9948 0.1014
vn 0.9385 -0.0691 0.3384
vn -0.0012 0.0165 0.9999
vn 0.0135 -0.8239 0.5666
vn 0.0003 -0.1341 0.9910
vn 0.0000 -0.4573 0.8893
vn 0.0000 -0.8620 0.5070
vn 0.3291 -0.0577 0.9425
vn -0.9178 -0.2334 0.3213
vn -0.5593 -0.1773 0.8098
vn -0.9988 0.0272 0.0410
vn -0.1135 -0.0050 0.9935
vn -0.9875 -0.0811 0.1354
vn -0.5798 0.4813 0.6574
vn -0.4051 0.3029 0.8626
vn -0.7648 -0.1869 0.6166
vn -0.8640 -0.3707 0.3407
vn -0.3555 0.2944 0.8871
usemtl None
s off
f 9/1/1 2/2/1 4/3/1 10/4/1
f 10/4/2 4/3/2 8/5/2 11/6/2
f 11/6/3 8/5/3 6/7/3 12/8/3
f 12/8/4 6/7/4 2/9/4 9/10/4
f 3/11/5 7/12/5 5/13/5 1/14/5
f 8/5/6 4/15/6 2/16/6 6/7/6
f 78/17/7 93/18/7 99/19/7
f 29/20/8 11/6/8 12/8/8 82/21/8 93/18/8
f 28/22/9 10/4/9 11/6/9 29/20/9
f 27/23/10 100/24/10 109/25/10 111/26/10 108/27/10 101/28/10 9/1/10 10/4/10 28/22/10
f 51/29/11 15/30/11 13/31/11 52/32/11
f 52/32/12 13/31/12 14/33/12 53/34/12
f 53/34/13 14/33/13 89/35/13 75/36/13
f 80/37/14 90/38/14 99/39/14
f 22/40/15 18/41/15 19/42/15 23/43/15
f 21/44/16 17/45/16 18/41/16 22/40/16
f 20/46/17 16/47/17 17/45/17 21/44/17
f 23/48/18 19/49/18 16/47/18 20/46/18
f 1/50/19 23/48/19 20/46/19 3/51/19
f 3/51/20 20/46/20 21/44/20 7/12/20
f 7/12/21 21/44/21 22/40/21 5/13/21
f 5/13/6 22/40/6 23/43/6 1/52/6
f 56/53/22 94/54/22 79/55/22 24/56/22 57/57/22
f 55/58/23 26/59/23 83/60/23 94/54/23 56/53/23
f 54/61/24 25/62/24 26/59/24 55/58/24
f 57/63/25 24/64/25 25/62/25 54/61/25
f 42/65/26 27/23/26 28/22/26 43/66/26
f 43/66/27 28/22/27 29/20/27 44/67/27
f 44/67/28 29/20/28 93/18/28 78/17/28
f 86/68/29 87/69/29 99/70/29
f 85/71/30 91/72/30 99/73/30
f 14/33/31 31/74/31 97/75/31 89/35/31
f 13/31/32 30/76/32 31/74/32 14/33/32
f 15/30/33 32/77/33 30/76/33 13/31/33
f 93/18/34 82/21/34 99/78/34
f 31/74/35 35/79/35 86/68/35 97/75/35
f 30/76/36 34/80/36 35/79/36 31/74/36
f 32/77/36 33/81/36 34/80/36 30/76/36
f 97/75/37 86/68/37 99/82/37
f 35/79/38 38/83/38 87/69/38 86/68/38
f 34/80/39 37/84/39 38/83/39 35/79/39
f 33/81/19 36/85/19 37/84/19 34/80/19
f 79/55/40 94/54/40 99/86/40
f 38/83/41 41/87/41 96/88/41 87/69/41
f 37/84/36 40/89/36 41/87/36 38/83/36
f 36/85/36 39/90/36 40/89/36 37/84/36
f 90/38/42 84/91/42 99/92/42
f 41/87/43 44/67/43 78/17/43 96/88/43
f 40/89/44 43/66/44 44/67/44 41/87/44
f 39/90/19 42/65/19 43/66/19 40/89/19
f 89/35/45 97/75/45 99/93/45
f 26/59/46 47/94/46 85/71/46 83/60/46
f 25/62/5 46/95/5 47/94/5 26/59/5
f 24/64/5 45/96/5 46/95/5 25/62/5
f 91/72/47 75/36/47 99/97/47
f 47/94/48 50/98/48 91/72/48 85/71/48
f 46/95/49 49/99/49 50/98/49 47/94/49
f 45/96/19 48/100/19 49/99/19 46/95/19
f 75/36/50 89/35/50 99/101/50
f 50/98/51 53/34/51 75/36/51 91/72/51
f 49/99/52 52/32/52 53/34/52 50/98/52
f 48/100/53 51/29/53 52/32/53 49/99/53
f 61/102/54 57/63/54 54/61/54 58/103/54
f 58/103/55 54/61/55 55/58/55 59/104/55
f 59/104/56 55/58/56 56/53/56 60/105/56
f 60/105/57 56/53/57 57/57/57 61/106/57
f 69/107/58 60/105/58 61/106/58 66/108/58
f 68/109/59 59/104/59 60/105/59 69/107/59
f 67/110/60 58/103/60 59/104/60 68/109/60
f 66/111/61 61/102/61 58/103/61 67/110/61
f 19/49/62 70/112/62 73/113/62 71/114/62 65/115/62 62/116/62 16/47/62
f 16/47/24 62/116/24 63/117/24 17/45/24
f 17/45/23 63/117/23 64/118/23 18/41/23
f 18/41/63 64/118/63 65/119/63 71/120/63 72/121/63 70/122/63 19/42/63
f 65/115/64 66/111/64 67/110/64 62/116/64
f 62/116/24 67/110/24 68/109/24 63/117/24
f 63/117/65 68/109/65 69/107/65 64/118/65
f 64/118/66 69/107/66 66/108/66 65/119/66
f 70/122/67 72/121/67 74/123/67
f 71/114/68 73/113/68 74/124/68
f 73/113/69 70/112/69 74/125/69
f 72/121/70 71/120/70 74/126/70
f 80/37/71 98/127/71 27/128/71 42/129/71
f 84/91/72 77/130/72 99/131/72
f 98/127/73 80/37/73 99/132/73
f 95/133/74 88/134/74 99/135/74
f 98/127/75 82/21/75 12/8/75 9/10/75 101/136/75 107/137/75 106/138/75 105/139/75 104/140/75 103/141/75 102/142/75 100/143/75 27/128/75
f 83/60/76 85/71/76 99/144/76
f 94/54/77 83/60/77 99/145/77
f 92/146/78 95/133/78 99/147/78
f 87/69/79 96/88/79 99/148/79
f 77/130/80 76/149/80 99/150/80
f 88/134/81 81/151/81 99/152/81
f 96/88/82 78/17/82 99/153/82
f 92/146/83 76/149/83 32/154/83 15/155/83
f 76/149/36 77/130/36 33/156/36 32/154/36
f 76/149/84 92/146/84 99/157/84
f 77/130/85 84/91/85 36/158/85 33/156/85
f 84/91/86 90/38/86 39/159/86 36/158/86
f 81/151/87 79/55/87 99/160/87
f 90/38/88 80/37/88 42/129/88 39/159/88
f 79/55/89 81/151/89 45/161/89 24/56/89
f 81/151/90 88/134/90 48/162/90 45/161/90
f 95/133/91 92/146/91 15/155/91 51/163/91
f 88/134/92 95/133/92 51/163/92 48/162/92
f 82/21/93 98/127/93 99/164/93
f 105/139/94 106/138/94 110/165/94
f 101/28/95 108/27/95 110/166/95
f 102/142/96 103/141/96 110/167/96
f 111/26/97 109/25/97 110/168/97
f 106/138/98 107/137/98 110/169/98
f 103/141/99 104/140/99 110/170/99
f 109/25/100 100/24/100 110/171/100
f 107/137/101 101/136/101 110/172/101
f 104/140/102 105/139/102 110/173/102
f 100/143/103 102/142/103 110/174/103
f 108/27/97 111/26/97 110/175/97
